<svg xmlns="http://www.w3.org/2000/svg" width="333" height="60" fill="none" viewBox="0 0 333 60">
    <g clip-path="url(#a)">
        <path fill="#FEFEFE" d="M55.283 53.626H44.62L34.48 10.433 23.815 53.626H13.09L0 2.938h8.897l9.75 44.034 10.47-43.315h11.102l10.226 43.522L60.719 2.937h8.385l-13.82 50.69zM129.823 24.766c.098.975.159 1.987.183 3.01.025 1.024 0 2.328 0 3.9v21.95h-8.092v-23.79c0-.877 0-1.816-.147-2.79a9.04 9.04 0 0 0-2.157-5.4c-1.227-1.43-3.238-2.145-6.033-2.145a9.187 9.187 0 0 0-3.936.877 8.166 8.166 0 0 0-3.23 2.864 16.123 16.123 0 0 0-2.17 5.144 31.88 31.88 0 0 0-.804 7.727v17.513h-8.093v-39h8.093v6.46l2.596-4.486a14.14 14.14 0 0 1 4.631-2.437 19.822 19.822 0 0 1 5.217-.622c4.217 0 7.483 1.012 9.75 3.01a12.187 12.187 0 0 1 4.192 8.215zM173.492 33.15v1.39a13.187 13.187 0 0 1-.147 1.84h-28.031c.078 2.002.447 3.98 1.097 5.875a11.456 11.456 0 0 0 2.279 3.827 7.65 7.65 0 0 0 3.12 2.096c1.207.42 2.476.63 3.754.622a9.423 9.423 0 0 0 6.094-2.023 8.792 8.792 0 0 0 3.12-5.765h8.153a17.064 17.064 0 0 1-2.303 6.02 14.94 14.94 0 0 1-3.961 4.266 17 17 0 0 1-5.265 2.535c-1.98.577-4.033.864-6.094.854a20.36 20.36 0 0 1-7.24-1.22 15.68 15.68 0 0 1-5.813-3.777 17.744 17.744 0 0 1-3.864-6.399 26.58 26.58 0 0 1-1.389-9.007 24.624 24.624 0 0 1 1.389-8.458 18.61 18.61 0 0 1 3.937-6.496 17.858 17.858 0 0 1 6.094-4.193 19.316 19.316 0 0 1 7.714-1.51c2.58-.057 5.14.46 7.496 1.51a15.573 15.573 0 0 1 5.448 4.144 18.377 18.377 0 0 1 3.339 6.216 25.236 25.236 0 0 1 1.073 7.654zM155.771 19.5a9.346 9.346 0 0 0-6.947 2.792c-1.845 1.868-2.982 4.688-3.413 8.458h19.769a15.025 15.025 0 0 0-2.791-8.349 8.05 8.05 0 0 0-6.618-2.9z"/>
        <path fill="#DE4E52" d="M211.566 41.231v12.395h-8.032V41.231h-24.899V37.04l24.546-34.126h8.385V34.76h6.399v6.471h-6.399zm-8.032-28.446a73.7 73.7 0 0 1-1.73 2.937 40.148 40.148 0 0 1-2.096 3.01L188.166 34.76h15.368V12.785z"/>
        <path fill="#FEFEFE" d="M250.823 3.23a15.76 15.76 0 0 1 9.665 4.522c2.437 2.518 3.676 6.032 3.717 10.542a15.844 15.844 0 0 1-1.073 6.094 13.967 13.967 0 0 1-2.864 4.521 14.206 14.206 0 0 1-4.229 3.01 17.565 17.565 0 0 1-5.216 1.512 34.275 34.275 0 0 1-3.303.256c-1.024.024-2.231 0-3.657 0h-8.531v19.94H227.3V2.936h20.269c1.084 0 2.071.147 3.254.293zm-1.548 23.583a8.235 8.235 0 0 0 4.521-2.437 8.528 8.528 0 0 0 1.877-6.094 8.44 8.44 0 0 0-1.877-6.02 8.259 8.259 0 0 0-4.521-2.512 27.383 27.383 0 0 0-2.316-.219 50.058 50.058 0 0 0-2.827-.073h-8.751v17.66h8.751c1.036 0 1.974 0 2.827-.073s1.67-.122 2.316-.232zM287.63 13.662a7.749 7.749 0 0 1 2.717.44v6.325c-3.729-.244-6.67.637-8.823 2.644-2.154 2.007-3.23 5.44-3.23 10.299v20.256h-8.093v-39h8.093v6.605l3.303-5.363a11.3 11.3 0 0 1 2.937-1.62 9.11 9.11 0 0 1 3.096-.585zM312.358 13.59a21.33 21.33 0 0 1 8.629 1.62 17.47 17.47 0 0 1 6.179 4.375 18.09 18.09 0 0 1 3.657 6.496 25.06 25.06 0 0 1 1.218 8.02 24.928 24.928 0 0 1-1.218 8.007 18.63 18.63 0 0 1-3.657 6.545 17.265 17.265 0 0 1-6.179 4.412 23.814 23.814 0 0 1-17.27 0 17.274 17.274 0 0 1-6.179-4.412 18.611 18.611 0 0 1-3.656-6.545 24.93 24.93 0 0 1-1.219-8.007 25.06 25.06 0 0 1 1.219-8.02c.754-2.395 2-4.608 3.656-6.495a17.48 17.48 0 0 1 6.179-4.376 21.355 21.355 0 0 1 8.641-1.62zm0 35.21a9.615 9.615 0 0 0 8.178-3.998c1.963-2.681 2.938-6.24 2.938-10.701 0-4.46-.975-8.02-2.938-10.664a10.617 10.617 0 0 0-16.538 0c-1.959 2.64-2.938 6.195-2.938 10.664 0 4.46.975 8.02 2.938 10.7a9.75 9.75 0 0 0 8.36 3.95v.048zM84.936 30.555c2.962-1.304 2.815-2.523 2.815-3.388v-4.875c0-1.658.378-4.644-1.694-6.326a6.252 6.252 0 0 1-2.096-4.314V2.62h.207a.134.134 0 0 0 .122-.183V1.219a.134.134 0 0 0-.134-.134h-.207V.183A.183.183 0 0 0 83.766 0h-4.388a.134.134 0 0 0-.158.134v1h-.207a.134.134 0 0 0-.134.134v1.17a.134.134 0 0 0 .134.134h.207v9.665a7.386 7.386 0 0 1-2.56 4.095c-1.303 1.328-1.218 4.046-1.218 6.094 0 2.047 8.02 4.424 8.093 4.875.073.45-4.583 2.437-5.18 2.644-.598.208-2.999 1.134-2.999 3.181 0 2.048 2.597 3.218 2.597 3.218s5.508 2.291 5.533 2.657c.024.366-4.51 2.047-5.046 2.316-.536.268-3.108 1.462-3.108 3.437a3.655 3.655 0 0 0 2.17 2.961s5.24 2.438 5.24 2.767c0 .329-3.656 1.852-4.095 2.072a3.741 3.741 0 0 0-2.437 3.29c0 2.901 5.557 4.083 5.557 4.083 1.121.232 1.146-.548.841-.914-.659-.491-1.375-.9-2.133-1.219-1.036-.597-2.035-1.292-2.035-1.511 0-.439 3.047-1.401 5.24-2.23 2.194-.83 3.462-1.987 3.462-3.242 0-1.256-.207-2.084-2.084-3.133-1.877-1.048-5.606-2.608-5.606-2.9 0-.293 1.755-.841 3.656-1.755 2.206-1.024 4.643-1.816 4.643-3.9 0-2.62-3.07-3.474-4.607-4.12a14.852 14.852 0 0 1-3.583-1.767c-.012-.244 2.413-1.316 5.375-2.681z"/>
    </g>
    <defs>
        <clipPath id="a">
            <path fill="#fff" d="M0 0h332.127v60H0z"/>
        </clipPath>
    </defs>
</svg>
