<svg xmlns="http://www.w3.org/2000/svg" width="180" height="32" fill="none" viewBox="0 0 180 32">
    <g clip-path="url(#logo-clip-small)">
        <path fill="#1D1D1B" d="M29.962 28.6h-5.78L18.686 5.565l-5.78 23.037H7.095L0 1.567h4.822l5.284 23.485L15.78 1.95h6.017l5.542 23.212 5.568-23.595h4.545L29.962 28.6zM70.36 13.208c.052.52.085 1.06.098 1.606.014.546 0 1.241 0 2.08V28.6h-4.386V15.912c0-.468 0-.968-.079-1.488a4.781 4.781 0 0 0-1.169-2.88c-.665-.763-1.755-1.144-3.27-1.144a5.047 5.047 0 0 0-2.133.468 4.404 4.404 0 0 0-1.75 1.528 8.514 8.514 0 0 0-1.176 2.743 16.74 16.74 0 0 0-.436 4.12V28.6h-4.386V7.8h4.386v3.445l1.407-2.392a7.704 7.704 0 0 1 2.51-1.3 10.905 10.905 0 0 1 2.827-.331c2.285 0 4.056.539 5.284 1.605a6.466 6.466 0 0 1 2.272 4.381zM94.026 17.68v.741c-.003.329-.03.657-.08.982H78.755c.043 1.067.243 2.122.595 3.133a6.095 6.095 0 0 0 1.235 2.04c.46.506 1.042.89 1.691 1.119a6.177 6.177 0 0 0 2.034.331 5.16 5.16 0 0 0 3.303-1.079 4.666 4.666 0 0 0 1.691-3.074h4.419a9.012 9.012 0 0 1-1.248 3.21 8.014 8.014 0 0 1-2.147 2.276 9.273 9.273 0 0 1-2.854 1.352 11.78 11.78 0 0 1-3.302.455 11.19 11.19 0 0 1-3.924-.65 8.516 8.516 0 0 1-3.15-2.015 9.444 9.444 0 0 1-2.094-3.413 13.977 13.977 0 0 1-.753-4.803 12.948 12.948 0 0 1 .753-4.511 9.891 9.891 0 0 1 2.133-3.465 9.69 9.69 0 0 1 3.303-2.236 10.618 10.618 0 0 1 4.181-.806 9.604 9.604 0 0 1 4.062.806 8.43 8.43 0 0 1 2.953 2.21 9.754 9.754 0 0 1 1.81 3.315c.405 1.323.601 2.7.58 4.082zm-9.604-7.28a5.138 5.138 0 0 0-2.04.357 5.073 5.073 0 0 0-1.725 1.132c-1 .996-1.616 2.5-1.85 4.51h10.714a7.931 7.931 0 0 0-1.513-4.452 4.354 4.354 0 0 0-1.606-1.192 4.423 4.423 0 0 0-1.98-.355z"/>
        <path fill="#DE4E52" d="M114.661 21.99v6.61h-4.353v-6.61H96.813v-2.236l13.303-18.2h4.545v16.984h3.468v3.452h-3.468zm-4.353-15.171c-.297.52-.608 1.046-.938 1.566-.33.52-.713 1.06-1.136 1.606l-6.255 8.547h8.329V6.818z"/>
        <path fill="#1D1D1B" d="M135.936 1.723a8.6 8.6 0 0 1 5.238 2.411c1.321 1.344 1.993 3.218 2.015 5.623a8.35 8.35 0 0 1-.581 3.25 7.437 7.437 0 0 1-1.553 2.411 7.694 7.694 0 0 1-2.292 1.606 9.634 9.634 0 0 1-2.827.806c-.66.078-1.235.123-1.79.136-.555.013-1.209 0-1.981 0h-4.624v10.635h-4.353V1.567h10.985c.588 0 1.123.078 1.763.156zm-.839 12.577a4.486 4.486 0 0 0 2.451-1.3 4.5 4.5 0 0 0 1.017-3.25 4.454 4.454 0 0 0-1.017-3.21 4.497 4.497 0 0 0-2.451-1.34 15.014 15.014 0 0 0-1.255-.117 27.57 27.57 0 0 0-1.532-.039h-4.743v9.419h4.743c.561 0 1.07 0 1.532-.04.463-.038.905-.064 1.255-.123zM155.884 7.287c.501-.01 1 .07 1.473.234v3.373c-2.021-.13-3.615.34-4.782 1.41-1.167 1.071-1.75 2.902-1.75 5.493V28.6h-4.386V7.8h4.386v3.523l1.79-2.86a6.144 6.144 0 0 1 1.592-.864 5.006 5.006 0 0 1 1.677-.312zM169.286 7.248c1.603-.034 3.196.26 4.677.864a9.477 9.477 0 0 1 3.349 2.334 9.618 9.618 0 0 1 1.981 3.464c.455 1.381.678 2.826.661 4.277a13.131 13.131 0 0 1-.661 4.27 9.887 9.887 0 0 1-1.981 3.491 9.364 9.364 0 0 1-3.349 2.353 13.102 13.102 0 0 1-9.36 0 9.355 9.355 0 0 1-3.349-2.353 9.887 9.887 0 0 1-1.981-3.49 13.078 13.078 0 0 1-.661-4.27 13.172 13.172 0 0 1 .661-4.278 9.589 9.589 0 0 1 1.981-3.464 9.477 9.477 0 0 1 3.349-2.334c1.483-.605 3.078-.899 4.683-.864zm0 18.778a5.287 5.287 0 0 0 2.489-.517 5.191 5.191 0 0 0 1.943-1.615c1.064-1.43 1.592-3.328 1.592-5.707s-.528-4.277-1.592-5.687a5.734 5.734 0 0 0-1.997-1.557 5.83 5.83 0 0 0-4.969 0 5.743 5.743 0 0 0-1.997 1.557c-1.061 1.408-1.592 3.304-1.592 5.687 0 2.38.529 4.277 1.592 5.707a5.266 5.266 0 0 0 1.996 1.616 5.357 5.357 0 0 0 2.535.49v.026zM46.032 16.296c1.605-.696 1.526-1.346 1.526-1.807v-2.6c0-.884.205-2.477-.918-3.374a3.34 3.34 0 0 1-.801-1.039 3.292 3.292 0 0 1-.335-1.262V1.397h.112a.073.073 0 0 0 .059-.031.071.071 0 0 0 .007-.066V.65a.07.07 0 0 0-.021-.05.073.073 0 0 0-.052-.022h-.112v-.48c0-.026-.01-.051-.029-.07a.1.1 0 0 0-.07-.028H43.02a.074.074 0 0 0-.06.016.072.072 0 0 0-.026.055v.533h-.112a.073.073 0 0 0-.051.021.07.07 0 0 0-.022.051V1.3a.07.07 0 0 0 .022.05c.013.014.032.021.05.021h.113v5.155c-.2.86-.689 1.63-1.387 2.184-.707.709-.66 2.158-.66 3.25s4.346 2.36 4.386 2.6c.04.24-2.484 1.3-2.808 1.41-.323.111-1.625.605-1.625 1.697s1.407 1.716 1.407 1.716 2.986 1.222 3 1.417c.012.195-2.445 1.092-2.736 1.235-.29.143-1.684.78-1.684 1.833.037.342.166.669.372.946.206.277.484.496.804.634 0 0 2.84 1.3 2.84 1.475 0 .176-1.981.988-2.22 1.105-.369.135-.69.373-.925.684a1.977 1.977 0 0 0-.395 1.071c0 1.547 3.012 2.178 3.012 2.178.607.123.62-.292.456-.487a5.497 5.497 0 0 0-1.156-.65c-.562-.319-1.104-.69-1.104-.807 0-.234 1.652-.747 2.84-1.19 1.19-.441 1.877-1.059 1.877-1.728 0-.67-.113-1.112-1.13-1.67-1.017-.56-3.038-1.392-3.038-1.548 0-.156.95-.448 1.981-.936 1.196-.546 2.517-.968 2.517-2.08 0-1.397-1.665-1.852-2.497-2.197a8.107 8.107 0 0 1-1.942-.942c-.006-.13 1.308-.702 2.913-1.43z"/>
    </g>
    <defs>
        <clipPath id="logo-clip-small">
            <path fill="#fff" d="M0 0h180v32H0z"/>
        </clipPath>
    </defs>
</svg>
