<svg xmlns="http://www.w3.org/2000/svg" fill="none" viewBox="0 0 880 879">
    <g clip-path="url(#wine-bottle-clip)">
        <path fill="#2D2D2D" d="M580.014 360.931l121.408-98.133-13.066-16.166-7.738-9.572-13.06-16.158-121.408 98.134c-22.005 17.786-81.793-1.544-113.154 23.805l-266.178 215.15c-8.001 6.466-17.062 22.542-7.475 34.403l32.283 39.94 7.737 9.572 32.277 39.933c9.594 11.869 27.219 6.385 35.218-.081 8-6.465 234.825-189.807 266.178-215.149 31.361-25.35 24.959-87.88 46.978-105.678zm-62.207-4.036c-5.798.307-12.802 1.073-20.722 2.157-7.965 1.056-16.675 2.996-25.955 5.31-4.414 1.591-9.017 3.284-13.464 5.184-3.865 3.063-7.666 4.146-12.055 8.561-8.667 7.53-17.773 15.464-27.203 23.67-18.923 16.347-39.573 33.232-60.169 50.149-41.506 33.476-83.996 65.77-116.647 88.989-16.23 11.728-30.297 20.817-39.898 27.502-9.717 6.537-15.447 10.07-15.447 10.07s4.651-4.869 13.079-13c8.549-7.983 20.384-19.833 35.256-33.245 29.549-27.056 70.034-61.832 111.469-95.395 20.848-16.608 41.687-33.256 61.649-48.318 10-7.497 19.668-14.738 28.849-21.634 4.016-3.502 10.889-6.507 16.077-9.247 5.593-1.702 11.032-2.974 16.173-4.151 5.161-.545 10.082-1.095 14.774-1.594 4.645-.007 9.037-.006 13.182-.038 8.242.245 15.354.634 21.183 1.282 11.654 1.172 18.156 2.714 18.156 2.714s-6.733.14-18.287 1.034z"/>
    </g>
    <defs>
        <clipPath id="wine-bottle-clip">
            <path fill="#fff" d="M0 0h621.68v628.459H0z" transform="rotate(51.052 244.503 512.016) scale(1.0005)"/>
        </clipPath>
    </defs>
</svg>
